<svg>
  <!--Pure desiged icons-->
  <defs>
    <g id="pure-flag-usa">
      <svg viewBox="0 0 48.19 48" xmlns="http://www.w3.org/2000/svg"><path d="m24.19 12h20.81a23.87 23.87 0 0 0 -4.9-6h-15.91z" fill="#d60a2e"/><path d="m47.42 18h-23.23v6h24a24.24 24.24 0 0 0 -.77-6z" fill="#d60a2e"/><path d="m2.37 34c.32.69.67 1.35 1 2h41.63a21.12 21.12 0 0 0 1-2 24 24 0 0 0 1.42-4h-46.42a24 24 0 0 0 1.37 4z" fill="#d60a2e"/><path d="m24.19 48a23.9 23.9 0 0 0 15.86-6h-31.73a23.91 23.91 0 0 0 15.87 6z" fill="#d60a2e"/><path d="m8.32 42h31.73a23.87 23.87 0 0 0 4.95-6h-41.58a24.09 24.09 0 0 0 4.9 6z" fill="#fff"/><path d="m24.19 25.57h-23.95a24.81 24.81 0 0 0 .76 4.43h46.42a24.24 24.24 0 0 0 .77-6h-24z" fill="#fff"/><path d="m24.19 18h23.23a24 24 0 0 0 -1.42-4 21.12 21.12 0 0 0 -1-2h-20.81z" fill="#fff"/><path d="m40.05 6a23.9 23.9 0 0 0 -15.86-6v6z" fill="#fff"/><path d="m10 9.69.74 2.31h6.45l.75-2.31.75 2.31h5.5v-6h-4.77l-.22.16.8 2.4-2-1.48-2 1.48.78-2.4-.33-.16h-5l-.23.16.78 2.4-2-1.48-2 1.48.78-2.4-.28-.16h-.18a24.09 24.09 0 0 0 -4.9 6h5.82z" fill="#0b55b1"/><path d="m.47 20.41c-.09.59-.17 1.21-.21 1.83l.52-1.61z" fill="#0b55b1"/><path d="m24.19 18h-5.85l.38 1.15h2.52l-2 1.48.76 2.37-2-1.48-2.1 1.48.78-2.4-2-1.48h2.52l.33-1.12h-7.13l.37 1.15h2.52l-2 1.48.71 2.37-2-1.48-2 1.48.78-2.4-2-1.48h2.43l.37-1.12h-7.13l.37 1.15h2.52l-2 1.48.74 2.37-2.08-1.45-1.78 1.32v1.13h24z" fill="#0b55b1"/><path d="m1.63 18h-.63c-.09.38-.18.76-.26 1.15h.57z" fill="#0b55b1"/><path d="m24.19 24h-24v1.57h24z" fill="#0b55b1"/><path d="m2 16.75.45 1.25h7.13l.42-1.25.4 1.25h7.13l.41-1.25.4 1.25h5.85v-6h-5.5v.09h2.52l-2 1.48.79 2.43-2-1.48-2.1 1.48.78-2.4-2-1.48h2.52v-.09h-6.46v.09h2.52l-2 1.48.74 2.4-2-1.48-2 1.48.78-2.4-2-1.48h2.43v-.09h-5.79v.09h2l-2 1.48.66 2.4-1.94-1.44a24.93 24.93 0 0 0 -1.14 3.44h.68z" fill="#0b55b1"/><path d="m8.41 5.93-.09.07h.18z" fill="#0b55b1"/><path d="m13.29 4.68-1.81 1.32h5l-1.84-1.32h2.52l.78-2.4.78 2.4h2.52l-1.82 1.32h4.77v-6a23.83 23.83 0 0 0 -13.57 4.23l.15.45z" fill="#0b55b1"/><g fill="#fff"><path d="m17.16 19.15h-2.52l2.04 1.48-.78 2.4 2.04-1.48 2.04 1.48-.78-2.4 2.04-1.48h-2.52l-.38-1.15h-.81z"/><path d="m17.53 18h.81l-.4-1.25z"/><path d="m9.21 19.15h-2.52l2.04 1.48-.78 2.4 2.04-1.48 2.04 1.48-.78-2.4 2.04-1.48h-2.52l-.37-1.15h-.82z"/><path d="m9.58 18h.82l-.41-1.25z"/><path d="m0 23 .22-.16c0-.21 0-.42 0-.63z"/><path d="m4.08 23-.78-2.4 2-1.48h-2.48l-.37-1.12h-.82l-.37 1.15h-.57c-.08.41-.15.83-.22 1.26l.31.22-.52 1.61v.63l1.74-1.32z"/><path d="m1.64 18h.81l-.41-1.25z"/><path d="m17.19 12h1.5l-.75-2.31z"/><path d="m17.16 12.09h-2.52l2.04 1.48-.78 2.4 2.04-1.48 2.04 1.48-.78-2.4 2.04-1.48h-2.52l-.03-.09h-1.5z"/><path d="m9.24 12h1.5l-.75-2.31z"/><path d="m9.21 12.09h-2.52l2.04 1.48-.78 2.4 2.04-1.48 2.04 1.48-.78-2.4 2.04-1.48h-2.52l-.03-.09h-1.5z"/><path d="m3.3 13.57 2-1.48h-2c-.36.62-.7 1.25-1 1.91-.08.18-.15.38-.23.56l2.01 1.44z"/><path d="m16.68 6.16-.78 2.4 2.04-1.48 2.04 1.48-.78-2.4.23-.16h-2.98z"/><path d="m18.72 4.68-.78-2.4-.78 2.4h-2.52l1.81 1.32h2.98l1.81-1.32z"/><path d="m8.73 6.16-.78 2.4 2.04-1.48 2.04 1.48-.78-2.4.23-.16h-2.98z"/><path d="m11.48 6 1.81-1.32h-2.52l-.15-.45a24.45 24.45 0 0 0 -2.21 1.7l.09.07z"/></g></svg>
    </g>
  </defs>
  <defs>
    <g id="pure-flag-spain">
      <svg viewBox="0 0 48 48" xmlns="http://www.w3.org/2000/svg"><path d="m24 48a24 24 0 0 0 21.82-14h-43.64a24 24 0 0 0 21.82 14z" fill="#d60a2e"/><path d="m24 0a24 24 0 0 0 -21.82 14h43.64a24 24 0 0 0 -21.82-14z" fill="#d60a2e"/><path d="m48 24a24 24 0 0 0 -2.18-10h-43.64a24 24 0 0 0 -2.18 10 24 24 0 0 0 2.18 10h43.64a24 24 0 0 0 2.18-10z" fill="#fed953"/></svg>
    </g>
  </defs>
  <defs>
    <g id="pure-flag-china">
      <svg xmlns="http://www.w3.org/2000/svg" viewBox="0 0 48 48"><defs><style>.cls-1{fill:#d60a2e;}.cls-2{fill:#fed953;}</style></defs><title>Asset 11</title><g id="Layer_2" data-name="Layer 2"><g id="china"><path class="cls-1" d="M45.82,14A24,24,0,0,0,0,24H0a24,24,0,1,0,48,0h0A24,24,0,0,0,45.82,14Z"/><polygon class="cls-2" points="16.5 15.84 19.05 21 24.74 21.82 20.62 25.84 21.59 31.51 16.5 28.83 11.41 31.51 12.38 25.84 8.26 21.82 13.95 21 16.5 15.84"/><polygon class="cls-2" points="30 9.82 30.03 11.69 31.59 12.72 29.82 13.33 29.32 15.13 28.19 13.64 26.32 13.72 27.4 12.19 26.75 10.43 28.53 10.98 30 9.82"/><polygon class="cls-2" points="32.82 16.82 34.29 17.98 36.08 17.44 35.42 19.19 36.49 20.72 34.63 20.64 33.5 22.13 33 20.33 31.23 19.72 32.79 18.69 32.82 16.82"/><polygon class="cls-2" points="33.98 25.57 34.76 27.27 36.61 27.6 35.23 28.86 35.49 30.72 33.86 29.8 32.18 30.62 32.55 28.79 31.25 27.44 33.11 27.23 33.98 25.57"/><polygon class="cls-2" points="30 32.82 30.03 34.69 31.59 35.73 29.82 36.33 29.32 38.13 28.19 36.64 26.32 36.72 27.4 35.19 26.75 33.43 28.53 33.98 30 32.82"/></g></g></svg>
    </g>
  </defs>

  <!--Material Design icon from https://materialdesignicons.com/-->
  <defs>
    <g id="account">
      <path d="M12,4A4,4 0 0,1 16,8A4,4 0 0,1 12,12A4,4 0 0,1 8,8A4,4 0 0,1 12,4M12,14C16.42,14 20,15.79 20,18V20H4V18C4,15.79 7.58,14 12,14Z"/>
    </g>
  </defs>
</svg>