<svg xmlns="http://www.w3.org/2000/svg" xmlns:xlink="http://www.w3.org/1999/xlink" viewBox="0 0 173.84 150.55"><defs><style>.cls-1{fill:url(#linear-gradient);}.cls-2{fill:url(#linear-gradient-2);}.cls-3{fill:url(#linear-gradient-3);}.cls-4{opacity:0.65;}.cls-5{fill:#fff;}</style><linearGradient id="linear-gradient" x1="-15.04" y1="-55.63" x2="161.29" y2="-130.63" gradientTransform="translate(173.84 -20.66) rotate(180)" gradientUnits="userSpaceOnUse"><stop offset="0" stop-color="#559dff"/><stop offset="0.16" stop-color="#549bfc"/><stop offset="0.29" stop-color="#5195f2"/><stop offset="0.41" stop-color="#4b8ae1"/><stop offset="0.52" stop-color="#437cc9"/><stop offset="0.63" stop-color="#3969aa"/><stop offset="0.74" stop-color="#2c5284"/><stop offset="0.84" stop-color="#1d3658"/><stop offset="0.94" stop-color="#0c1725"/><stop offset="1"/></linearGradient><linearGradient id="linear-gradient-2" x1="168.24" y1="-18.36" x2="-3.42" y2="-106.36" xlink:href="#linear-gradient"/><linearGradient id="linear-gradient-3" x1="126.96" y1="-172.38" x2="93.3" y2="4.96" gradientTransform="translate(173.84 -20.66) rotate(180)" gradientUnits="userSpaceOnUse"><stop offset="0" stop-color="#559dff"/><stop offset="0.23" stop-color="#549bfc"/><stop offset="0.36" stop-color="#5196f4"/><stop offset="0.47" stop-color="#4d8de6"/><stop offset="0.57" stop-color="#4681d1"/><stop offset="0.67" stop-color="#3d71b7"/><stop offset="0.75" stop-color="#325d97"/><stop offset="0.83" stop-color="#254570"/><stop offset="0.91" stop-color="#172a44"/><stop offset="0.98" stop-color="#060b12"/><stop offset="1"/></linearGradient></defs><title>Asset 6</title><g id="Layer_2" data-name="Layer 2"><g id="Layer_2-2" data-name="Layer 2"><polygon class="cls-1" points="44.65 19.34 173.84 19.34 162.68 38.67 109.25 131.22 98.09 150.55 75.76 150.55 86.92 131.21 98.08 111.88 140.35 38.67 55.81 38.67 44.65 19.34"/><polygon class="cls-2" points="11.17 0 162.68 0 173.84 19.34 44.65 19.34 55.81 38.67 86.92 92.55 75.76 111.89 33.49 38.67 22.33 19.34 11.17 0"/><polygon class="cls-3" points="0 19.34 11.17 0 22.33 19.34 33.49 38.67 75.76 111.89 86.92 92.55 118.04 38.67 140.35 38.67 98.08 111.88 86.92 131.21 75.76 150.55 64.6 131.22 11.16 38.67 0 19.34"/><g class="cls-4"><line class="cls-5" x1="140.35" y1="38.67" x2="75.76" y2="150.55"/><path class="cls-5" d="M140.35,38.67c-5.2,9.43-10.5,18.8-15.82,28.16l-16,28L92.24,122.77l-8.19,13.92-8.29,13.86,7.86-14.11,7.95-14,16.05-28,16.25-27.91Q132,52.53,140.35,38.67Z"/></g><g class="cls-4"><line class="cls-5" x1="44.65" y1="19.34" x2="173.84" y2="19.34"/><path class="cls-5" d="M44.65,19.34C55.42,19.14,66.18,19,77,19l32.3-.12,32.29.11,16.15.14,16.15.25-16.15.24-16.15.14-32.29.12L77,19.72C66.18,19.64,55.42,19.55,44.65,19.34Z"/></g><g class="cls-4"><line class="cls-5" x1="75.77" y1="111.88" x2="11.17" y2="0.01"/><path class="cls-5" d="M75.77,111.88c-5.57-9.22-11-18.49-16.48-27.77L43,56.19l-16-28L19,14.11,11.17,0l8.29,13.86,8.19,13.91L43.9,55.7,60,83.72C65.26,93.09,70.56,102.46,75.77,111.88Z"/></g></g></g></svg>